<svg width="32" height="35" viewBox="0 0 32 35" fill="none" xmlns="http://www.w3.org/2000/svg">
<path d="M13.7224 30.2967C13.7224 30.0729 13.674 29.8518 13.5806 29.6492C13.4872 29.4465 13.3512 29.2673 13.1821 29.1241C13.0131 28.9809 12.8151 28.8773 12.6023 28.8206C12.3895 28.7639 12.1671 28.7555 11.9507 28.796C9.98708 29.1626 7.50784 29.2177 6.84865 27.3341C6.27386 25.8753 5.32176 24.6019 4.09328 23.6489C4.00563 23.6004 3.92209 23.5445 3.84353 23.4819C3.73602 23.1934 3.54505 22.9448 3.29583 22.769C3.0466 22.5931 2.75083 22.4983 2.44753 22.4969H2.44021C2.0436 22.4968 1.6631 22.6565 1.38197 22.9411C1.10085 23.2257 0.942004 23.612 0.940207 24.0154C0.934342 25.2598 2.15671 26.057 2.65261 26.3268C3.23737 26.9245 3.70733 27.628 4.03835 28.4012C4.58474 29.9629 6.17263 32.3323 10.7371 32.0269C10.7386 32.0805 10.74 32.1312 10.7407 32.1774L10.7473 32.5857C10.7473 32.9904 10.9054 33.3786 11.1867 33.6648C11.468 33.9509 11.8495 34.1117 12.2473 34.1117C12.6452 34.1117 13.0267 33.9509 13.308 33.6648C13.5893 33.3786 13.7473 32.9904 13.7473 32.5857L13.74 32.0999C13.7327 31.8107 13.7224 31.392 13.7224 30.2967ZM29.7229 7.21462C29.7705 7.02387 29.8174 6.81226 29.8584 6.57382C30.101 4.87325 29.8895 3.1376 29.2461 1.54876C29.1649 1.34163 29.0402 1.15507 28.8807 1.00215C28.7211 0.849245 28.5306 0.733686 28.3225 0.66358C27.7885 0.480279 25.8169 0.119643 22.0464 2.57106C18.9122 1.82073 15.6496 1.82073 12.5154 2.57106C8.76028 0.15555 6.79885 0.483331 6.27004 0.656194C6.05683 0.72346 5.86113 0.838407 5.69726 0.99261C5.53339 1.14681 5.40552 1.33636 5.32301 1.54737C4.66646 3.16671 4.45727 4.93776 4.71803 6.66924C4.75466 6.86446 4.7942 7.04479 4.83523 7.21019C3.59258 8.89402 2.93069 10.9479 2.95217 13.0533C2.94812 13.5231 2.96939 13.9927 3.01589 14.4601C3.51689 21.4835 8.01689 23.5922 11.1524 24.3164C11.0872 24.5072 11.0279 24.7113 10.9751 24.9274C10.8811 25.32 10.944 25.7346 11.15 26.0801C11.356 26.4256 11.6883 26.6739 12.074 26.7706C12.4597 26.8673 12.8673 26.8044 13.2075 26.5957C13.5477 26.3871 13.7926 26.0497 13.8887 25.6576C13.9841 25.1492 14.2288 24.6821 14.5904 24.3179C14.809 24.1232 14.9673 23.868 15.046 23.5834C15.1247 23.2989 15.1204 22.9972 15.0336 22.715C14.9469 22.4329 14.7814 22.1825 14.5573 21.9943C14.3333 21.8061 14.0602 21.6881 13.7715 21.6549C8.59036 21.0528 6.34108 18.9054 6.00271 14.18C5.96523 13.8057 5.94835 13.4296 5.95217 13.0534C5.92811 11.5528 6.41541 10.09 7.33132 8.91352C7.42335 8.79087 7.52137 8.67299 7.62502 8.56034C7.80866 8.35128 7.93214 8.09479 7.98189 7.81902C8.03163 7.54325 8.00573 7.25887 7.90702 6.9971C7.80582 6.72171 7.7279 6.43803 7.67411 6.14916C7.55191 5.32775 7.59199 4.48979 7.79201 3.68433C9.09571 4.05891 10.3227 4.66865 11.4145 5.4845C11.5951 5.60684 11.7994 5.68826 12.0136 5.72323C12.2278 5.7582 12.4469 5.74591 12.656 5.68718C15.6876 4.85018 18.8839 4.8507 21.9152 5.68871C22.1255 5.74737 22.3457 5.75896 22.5608 5.72269C22.7759 5.68641 22.9807 5.60314 23.1611 5.47859C24.2478 4.65935 25.4696 4.04417 26.769 3.66202C26.9681 4.44813 27.0127 5.26652 26.9001 6.0702C26.8458 6.3869 26.7609 6.69738 26.6467 6.99713C26.548 7.2589 26.5221 7.54328 26.5718 7.81905C26.6216 8.09482 26.745 8.35131 26.9287 8.56037C27.0444 8.69299 27.1601 8.83605 27.2641 8.97017C28.1736 10.1267 28.6526 11.5727 28.617 13.0533C28.6197 13.4495 28.6009 13.8455 28.5606 14.2395C28.2302 18.9024 25.9722 21.0513 20.7669 21.6549C20.478 21.6883 20.205 21.8064 19.981 21.9948C19.7569 22.1832 19.5915 22.4338 19.5048 22.7161C19.4182 22.9983 19.414 23.3001 19.4928 23.5848C19.5716 23.8694 19.73 24.1246 19.9487 24.3194C20.3217 24.6933 20.5669 25.1791 20.6482 25.7053C20.7496 26.1138 20.7961 26.5344 20.7866 26.9556V30.5172C20.772 31.5052 20.772 32.2459 20.772 32.5856C20.772 32.9903 20.93 33.3785 21.2113 33.6647C21.4926 33.9508 21.8741 34.1116 22.272 34.1116C22.6698 34.1116 23.0513 33.9508 23.3326 33.6647C23.6139 33.3785 23.772 32.9903 23.772 32.5856C23.772 32.2548 23.772 31.5291 23.7866 30.5411V26.9556C23.7987 26.2808 23.7206 25.6076 23.5544 24.9542C23.5069 24.7397 23.4487 24.5279 23.3801 24.3194C25.662 23.9338 27.7353 22.7369 29.231 20.9418C30.7268 19.1467 31.5478 16.87 31.5481 14.5167C31.5975 14.0306 31.6205 13.5421 31.617 13.0533C31.6503 10.9456 30.9828 8.8882 29.7229 7.21465L29.7229 7.21462Z" fill="white"/>
</svg>
