<svg width="15" height="15" viewBox="0 0 15 15" fill="none" xmlns="http://www.w3.org/2000/svg">
<path d="M7.50008 14.5833C6.50842 14.5833 5.58168 14.3974 4.71987 14.0255C3.85807 13.6536 3.10841 13.1489 2.47091 12.5114C1.83341 11.8739 1.33168 11.1213 0.965706 10.2536C0.599734 9.3859 0.416748 8.45621 0.416748 7.46454C0.416748 6.47288 0.599734 5.54909 0.965706 4.69319C1.33168 3.83729 1.83341 3.09058 2.47091 2.45308C3.10841 1.81558 3.85807 1.3168 4.71987 0.95673C5.58168 0.596661 6.50842 0.416626 7.50008 0.416626C8.49175 0.416626 9.41848 0.596661 10.2803 0.95673C11.1421 1.3168 11.8917 1.81558 12.5292 2.45308C13.1667 3.09058 13.6685 3.83729 14.0345 4.69319C14.4004 5.54909 14.5834 6.47288 14.5834 7.46454C14.5834 8.45621 14.4004 9.3859 14.0345 10.2536C13.6685 11.1213 13.1667 11.8739 12.5292 12.5114C11.8917 13.1489 11.1421 13.6536 10.2803 14.0255C9.41848 14.3974 8.49175 14.5833 7.50008 14.5833ZM10.298 4.84371H12.9542C12.5647 4.02913 12.0305 3.35031 11.3516 2.80725C10.6728 2.2642 9.89071 1.88051 9.00529 1.65621C9.30043 2.09301 9.5513 2.56524 9.75789 3.07288C9.96449 3.58051 10.1445 4.17079 10.298 4.84371ZM5.80008 4.84371H9.2355C9.10564 4.21802 8.88723 3.61298 8.58029 3.02861C8.27335 2.44423 7.91328 1.92774 7.50008 1.47913C7.1223 1.79788 6.80355 2.21697 6.54383 2.73642C6.28411 3.25586 6.03619 3.95829 5.80008 4.84371ZM1.69175 9.076H4.50737C4.47196 8.75725 4.4513 8.47097 4.44539 8.21715C4.43949 7.96333 4.43654 7.71246 4.43654 7.46454C4.43654 7.1694 4.44244 6.90673 4.45425 6.67652C4.46605 6.44631 4.48967 6.18954 4.52508 5.90621H1.69175C1.60911 6.18954 1.55303 6.44336 1.52352 6.66767C1.49401 6.89197 1.47925 7.1576 1.47925 7.46454C1.47925 7.77149 1.49401 8.04597 1.52352 8.28798C1.55303 8.52999 1.60911 8.79267 1.69175 9.076ZM5.99487 13.3437C5.69973 12.8951 5.44592 12.4111 5.23342 11.8916C5.02092 11.3722 4.84383 10.7878 4.70217 10.1385H2.04591C2.49453 10.9767 3.01397 11.6349 3.60425 12.113C4.19453 12.5911 4.9914 13.0013 5.99487 13.3437ZM2.04591 4.84371H4.71987C4.84973 4.20621 5.01501 3.63659 5.21571 3.13486C5.4164 2.63312 5.67022 2.14614 5.97717 1.67392C5.09175 1.89822 4.31848 2.276 3.65737 2.80725C2.99626 3.3385 2.45911 4.01732 2.04591 4.84371ZM7.50008 13.5562C7.91328 13.1312 8.25859 12.6442 8.53602 12.0953C8.81345 11.5463 9.04071 10.8941 9.21779 10.1385H5.80008C5.96536 10.8468 6.18671 11.4843 6.46414 12.051C6.74158 12.6177 7.08689 13.1194 7.50008 13.5562ZM5.60529 9.076H9.41258C9.4598 8.71003 9.48932 8.41194 9.50112 8.18173C9.51293 7.95152 9.51883 7.71246 9.51883 7.46454C9.51883 7.22843 9.51293 7.00117 9.50112 6.78277C9.48932 6.56437 9.4598 6.27218 9.41258 5.90621H5.60529C5.55807 6.27218 5.52855 6.56437 5.51675 6.78277C5.50494 7.00117 5.49904 7.22843 5.49904 7.46454C5.49904 7.71246 5.50494 7.95152 5.51675 8.18173C5.52855 8.41194 5.55807 8.71003 5.60529 9.076ZM9.023 13.326C9.873 13.0545 10.6374 12.6472 11.3162 12.1041C11.995 11.5611 12.5411 10.9059 12.9542 10.1385H10.3157C10.1622 10.776 9.9822 11.3545 9.7756 11.8739C9.56901 12.3934 9.31814 12.8774 9.023 13.326ZM10.4751 9.076H13.3084C13.3911 8.79267 13.4471 8.52999 13.4766 8.28798C13.5062 8.04597 13.5209 7.77149 13.5209 7.46454C13.5209 7.1576 13.5062 6.89197 13.4766 6.66767C13.4471 6.44336 13.3911 6.18954 13.3084 5.90621H10.4928C10.5282 6.3194 10.5518 6.6352 10.5636 6.85361C10.5754 7.07201 10.5813 7.27565 10.5813 7.46454C10.5813 7.72427 10.5725 7.96923 10.5548 8.19944C10.5371 8.42965 10.5105 8.72184 10.4751 9.076Z" fill="url(#paint0_linear_16_122)"/>
<defs>
<linearGradient id="paint0_linear_16_122" x1="7.50008" y1="0.416626" x2="7.50008" y2="14.5833" gradientUnits="userSpaceOnUse">
<stop stop-color="#90C4EB"/>
<stop offset="1" stop-color="#5388CE"/>
</linearGradient>
</defs>
</svg>
