<svg width="32" height="34" viewBox="0 0 32 34" fill="none" xmlns="http://www.w3.org/2000/svg">
<path d="M16.1169 8.54675C14.5923 8.54675 13.102 9.03153 11.8343 9.93978C10.5667 10.848 9.57872 12.139 8.99529 13.6493C8.41187 15.1597 8.25921 16.8217 8.55664 18.4251C8.85407 20.0285 9.58822 21.5013 10.6662 22.6573C11.7443 23.8133 13.1178 24.6005 14.613 24.9194C16.1083 25.2384 17.6582 25.0747 19.0667 24.4491C20.4752 23.8234 21.6791 22.764 22.5261 21.4047C23.3731 20.0454 23.8252 18.4473 23.8252 16.8125C23.8252 14.6203 23.0131 12.5179 21.5675 10.9677C20.1219 9.41761 18.1612 8.54675 16.1169 8.54675ZM16.1169 21.7719C15.2021 21.7719 14.3079 21.4811 13.5473 20.9361C12.7868 20.3912 12.194 19.6166 11.8439 18.7104C11.4939 17.8042 11.4023 16.807 11.5807 15.845C11.7592 14.8829 12.1997 13.9992 12.8465 13.3056C13.4933 12.6121 14.3174 12.1397 15.2146 11.9483C16.1117 11.757 17.0417 11.8552 17.8868 12.2306C18.7319 12.6059 19.4542 13.2416 19.9624 14.0572C20.4706 14.8728 20.7419 15.8316 20.7419 16.8125C20.7419 18.1278 20.2546 19.3893 19.3872 20.3194C18.5199 21.2494 17.3435 21.7719 16.1169 21.7719ZM23.8252 6.8936C23.5203 6.8936 23.2222 6.99056 22.9687 7.17221C22.7152 7.35386 22.5176 7.61205 22.4009 7.91412C22.2842 8.21619 22.2537 8.54859 22.3132 8.86927C22.3726 9.18995 22.5195 9.48451 22.7351 9.71571C22.9507 9.9469 23.2254 10.1044 23.5244 10.1681C23.8235 10.2319 24.1335 10.1992 24.4152 10.0741C24.6969 9.94894 24.9376 9.73705 25.107 9.46519C25.2764 9.19334 25.3669 8.87372 25.3669 8.54675C25.3669 8.10831 25.2044 7.68783 24.9153 7.3778C24.6262 7.06778 24.2341 6.8936 23.8252 6.8936ZM31.441 10.5967C31.4155 9.18392 31.1652 7.78622 30.701 6.46379C30.2706 5.2604 29.6089 4.16755 28.759 3.25618C27.9091 2.3448 26.8899 1.63529 25.7677 1.17371C24.5344 0.675942 23.231 0.407584 21.9135 0.380195C20.4181 0.281006 19.9248 0.281006 16.1169 0.281006C12.3089 0.281006 11.8156 0.281006 10.3202 0.380195C9.00272 0.407584 7.69928 0.675942 6.46603 1.17371C5.3438 1.63529 4.32464 2.3448 3.47473 3.25618C2.62482 4.16755 1.96315 5.2604 1.5327 6.46379C1.0685 7.78622 0.818237 9.18392 0.792695 10.5967C0.700195 12.2167 0.700195 12.7458 0.700195 16.8125C0.700195 20.8792 0.700195 21.4083 0.792695 23.0283C0.818237 24.4411 1.0685 25.8388 1.5327 27.1612C1.96315 28.3646 2.62482 29.4575 3.47473 30.3688C4.32464 31.2802 5.3438 31.9897 6.46603 32.4513C7.69928 32.9491 9.00272 33.2174 10.3202 33.2448C11.8619 33.2448 12.3089 33.344 16.1169 33.344C19.9248 33.344 20.4181 33.344 21.9135 33.2448C23.231 33.2174 24.5344 32.9491 25.7677 32.4513C26.8899 31.9897 27.9091 31.2802 28.759 30.3688C29.6089 29.4575 30.2706 28.3646 30.701 27.1612C31.1652 25.8388 31.4155 24.4411 31.441 23.0283C31.441 21.3752 31.5335 20.8792 31.5335 16.8125C31.5335 12.7458 31.5335 12.2167 31.441 10.5967ZM28.3577 22.8796C28.3307 23.9287 28.1485 24.9665 27.8181 25.9544C27.5449 26.7353 27.1131 27.4411 26.5539 28.0209C26.0166 28.6207 25.357 29.079 24.6269 29.3599C23.7034 29.7287 22.7291 29.9299 21.7439 29.955C20.2948 29.955 19.8477 30.0377 16.1014 30.0377C12.3552 30.0377 11.9235 30.0377 10.4744 30.0377C9.49081 30.0105 8.51761 29.8151 7.59145 29.4591C6.86325 29.1661 6.20498 28.7031 5.66436 28.1035C5.10498 27.5273 4.67757 26.82 4.41561 26.0371C4.07306 25.0522 3.88551 24.0131 3.86061 22.9622C3.86061 21.3091 3.86061 20.8958 3.86061 16.8952C3.86061 12.8945 3.86061 12.4151 3.86061 10.8281C3.88719 9.77208 4.07466 8.72783 4.41561 7.73671C4.68164 6.96078 5.10864 6.25982 5.66436 5.68681C6.20175 5.08697 6.86132 4.62866 7.59145 4.34775C8.51489 3.97893 9.48922 3.77779 10.4744 3.75262C11.9235 3.5873 12.3706 3.58731 16.1169 3.58731C19.8631 3.58731 20.3102 3.58731 21.7594 3.58731C22.7493 3.6143 23.7285 3.81535 24.6577 4.18244C25.3813 4.4677 26.035 4.92558 26.5694 5.52149C27.1288 6.09774 27.5562 6.80501 27.8181 7.58793C28.1955 8.59397 28.4093 9.66194 28.4502 10.7454C28.4502 12.3986 28.5273 12.8119 28.5273 16.8125C28.5273 20.8131 28.4502 21.2925 28.4502 22.8796H28.3577Z" fill="white"/>
</svg>
