<svg width="33" height="34" viewBox="0 0 33 34" fill="none" xmlns="http://www.w3.org/2000/svg">
<path d="M23.867 11.7418C22.5241 11.7413 21.202 12.0792 20.0189 12.7254C19.9109 12.4361 19.719 12.1871 19.4686 12.0114C19.2182 11.8357 18.9212 11.7417 18.617 11.7418H12.617C12.42 11.7417 12.2249 11.7811 12.0429 11.8578C11.8608 11.9344 11.6954 12.0468 11.5561 12.1885C11.4168 12.3303 11.3063 12.4985 11.231 12.6837C11.1556 12.8689 11.1169 13.0674 11.117 13.2678V31.5796C11.1169 31.7801 11.1556 31.9785 11.231 32.1637C11.3063 32.3489 11.4168 32.5172 11.5561 32.6589C11.6954 32.8007 11.8608 32.9131 12.0429 32.9897C12.2249 33.0663 12.42 33.1057 12.617 33.1056H18.617C18.814 33.1057 19.0091 33.0663 19.1912 32.9897C19.3732 32.9131 19.5386 32.8007 19.6779 32.6589C19.8172 32.5172 19.9277 32.3489 20.0031 32.1637C20.0784 31.9785 20.1171 31.7801 20.117 31.5796V23.1867C20.117 22.782 20.2751 22.3939 20.5564 22.1077C20.8377 21.8215 21.2192 21.6607 21.617 21.6607C22.0148 21.6607 22.3964 21.8215 22.6777 22.1077C22.959 22.3939 23.117 22.782 23.117 23.1867V31.5796C23.1169 31.7801 23.1556 31.9785 23.231 32.1637C23.3063 32.3489 23.4168 32.5172 23.5561 32.6589C23.6954 32.8007 23.8608 32.9131 24.0429 32.9897C24.2249 33.0663 24.42 33.1057 24.617 33.1056H30.617C30.814 33.1057 31.0091 33.0663 31.1912 32.9897C31.3732 32.9131 31.5386 32.8007 31.6779 32.6589C31.8172 32.5172 31.9277 32.3489 32.0031 32.1637C32.0784 31.9785 32.1171 31.7801 32.117 31.5796V20.1348C32.1143 17.9097 31.2442 15.7765 29.6977 14.2031C28.1511 12.6297 26.0542 11.7446 23.867 11.7418ZM29.117 30.0537H26.117V23.1867C26.117 21.9726 25.6429 20.8082 24.799 19.9496C23.9551 19.0911 22.8105 18.6088 21.617 18.6088C20.4235 18.6088 19.279 19.0911 18.435 19.9496C17.5911 20.8082 17.117 21.9726 17.117 23.1867V30.0537H14.117V14.7938H17.117V15.8668C17.1172 16.183 17.2139 16.4913 17.3937 16.7492C17.5735 17.0071 17.8276 17.2018 18.1209 17.3065C18.4141 17.4112 18.7321 17.4206 19.0309 17.3336C19.3297 17.2465 19.5946 17.0673 19.7889 16.8205C20.4621 15.9508 21.3854 15.3166 22.43 15.0065C23.4746 14.6964 24.5883 14.7259 25.6156 15.0909C26.6429 15.4559 27.5325 16.1382 28.1603 17.0424C28.788 17.9467 29.1225 19.0278 29.117 20.1348V30.0537ZM8.11702 11.7418H2.11702C1.92001 11.7417 1.7249 11.7811 1.54286 11.8578C1.36082 11.9344 1.19542 12.0468 1.05611 12.1885C0.9168 12.3303 0.806316 12.4985 0.730973 12.6837C0.655631 12.8689 0.616909 13.0674 0.617022 13.2678V31.5796C0.616907 31.7801 0.655628 31.9785 0.730969 32.1637C0.806311 32.3489 0.916796 32.5172 1.05611 32.6589C1.19542 32.8007 1.36082 32.9131 1.54286 32.9897C1.7249 33.0663 1.92001 33.1057 2.11702 33.1056H8.11702C8.31404 33.1057 8.50914 33.0663 8.69118 32.9897C8.87322 32.9131 9.03863 32.8007 9.17794 32.6589C9.31725 32.5172 9.42773 32.3489 9.50307 32.1637C9.57841 31.9785 9.61714 31.7801 9.61702 31.5796V13.2678C9.61713 13.0674 9.57841 12.8689 9.50307 12.6837C9.42773 12.4985 9.31724 12.3303 9.17793 12.1885C9.03862 12.0468 8.87322 11.9344 8.69118 11.8578C8.50914 11.7811 8.31404 11.7417 8.11702 11.7418ZM6.61702 30.0537H3.61702V14.7938H6.61702V30.0537ZM5.139 0.362575C4.48254 0.322599 3.82495 0.418879 3.20621 0.64556C2.58748 0.872241 2.02053 1.22459 1.53985 1.68117C1.05917 2.13775 0.674795 2.68902 0.41011 3.30147C0.145424 3.91391 0.00595611 4.57473 0.000186637 5.24373C-0.00558284 5.91273 0.122467 6.57593 0.376549 7.19301C0.630631 7.81008 1.00543 8.36813 1.47817 8.83322C1.9509 9.29832 2.51168 9.66072 3.12641 9.89841C3.74114 10.1361 4.39698 10.2441 5.05402 10.2159H5.0965C5.7547 10.2556 6.41395 10.1585 7.03398 9.93027C7.65402 9.70209 8.2218 9.34768 8.70265 8.88872C9.1835 8.42976 9.56731 7.87587 9.83063 7.26091C10.094 6.64594 10.2313 5.98281 10.2341 5.31204C10.237 4.64127 10.1055 3.97695 9.84745 3.35966C9.58944 2.74237 9.21042 2.18508 8.73355 1.72184C8.25668 1.2586 7.69197 0.899148 7.07393 0.66544C6.45589 0.431731 5.79749 0.328677 5.13898 0.362575H5.139ZM5.09652 7.16389H5.05402C4.79462 7.19593 4.53149 7.17118 4.28226 7.09129C4.03303 7.01141 3.80348 6.87823 3.60899 6.7007C3.4145 6.52316 3.25957 6.30537 3.15459 6.06194C3.04962 5.8185 2.99702 5.55504 3.00033 5.28923C3.00033 4.15069 3.83968 3.41453 5.139 3.41453C5.40104 3.37899 5.66753 3.40099 5.92052 3.47905C6.17351 3.55711 6.40711 3.68942 6.6056 3.86706C6.80409 4.0447 6.96286 4.26356 7.0712 4.50888C7.17955 4.7542 7.23497 5.02029 7.23372 5.28923C7.23372 6.42775 6.39436 7.16389 5.09652 7.16389Z" fill="white"/>
</svg>
