<svg width="355" height="40" viewBox="0 0 355 40" fill="none" xmlns="http://www.w3.org/2000/svg">
<path d="M0.111816 21.264C0.111816 18.272 0.567816 15.64 1.47982 13.368C2.39182 11.08 3.65582 9.168 5.27182 7.632C6.88782 6.08 8.75182 4.912 10.8638 4.128C12.9918 3.344 15.2638 2.952 17.6798 2.952C19.3918 2.952 20.8238 3.048 21.9758 3.24C23.1438 3.416 24.1198 3.616 24.9038 3.84C25.7038 4.048 26.4158 4.216 27.0398 4.344L26.0318 10.872C25.7278 10.68 25.2638 10.432 24.6398 10.128C24.0318 9.808 23.1998 9.528 22.1438 9.288C21.1038 9.032 19.7998 8.904 18.2318 8.904C16.1998 8.904 14.3998 9.376 12.8318 10.32C11.2638 11.264 10.0318 12.624 9.13582 14.4C8.23982 16.176 7.79182 18.32 7.79182 20.832C7.79182 23.344 8.19982 25.552 9.01582 27.456C9.84782 29.36 11.0638 30.856 12.6638 31.944C14.2638 33.016 16.2158 33.552 18.5198 33.552C19.5918 33.552 20.6798 33.432 21.7838 33.192C22.8878 32.952 23.8718 32.664 24.7358 32.328C25.5998 31.976 26.2398 31.632 26.6558 31.296V37.512C26.0158 37.768 25.2798 38.04 24.4478 38.328C23.6158 38.616 22.6558 38.864 21.5678 39.072C20.4958 39.28 19.2478 39.384 17.8238 39.384C14.1118 39.384 10.9358 38.64 8.29582 37.152C5.65582 35.648 3.63182 33.536 2.22382 30.816C0.815817 28.096 0.111816 24.912 0.111816 21.264Z" fill="#141414"/>
<path d="M39.4516 39.384C37.7556 39.384 36.2676 39.04 34.9876 38.352C33.7076 37.664 32.7076 36.704 31.9876 35.472C31.2836 34.24 30.9316 32.808 30.9316 31.176C30.9316 29.544 31.3716 28.144 32.2516 26.976C33.1476 25.808 34.3556 24.896 35.8756 24.24C36.9156 23.808 38.0516 23.472 39.2836 23.232C40.5316 22.992 41.7716 22.824 43.0036 22.728C44.2516 22.632 45.4116 22.584 46.4836 22.584L47.7076 24.096L46.4836 26.448C45.9076 26.448 45.2596 26.488 44.5396 26.568C43.8196 26.648 43.1236 26.768 42.4516 26.928C41.7956 27.072 41.2436 27.24 40.7956 27.432C40.1716 27.72 39.6116 28.104 39.1156 28.584C38.6356 29.064 38.3956 29.8 38.3956 30.792C38.3956 32.088 38.7556 33.048 39.4756 33.672C40.1956 34.28 41.1236 34.584 42.2596 34.584C42.8516 34.584 43.4356 34.504 44.0116 34.344C44.6036 34.184 45.1236 34 45.5716 33.792C46.0196 33.568 46.3236 33.36 46.4836 33.168L47.7556 34.68L46.8676 36.744C46.1476 37.384 45.1556 37.984 43.8916 38.544C42.6436 39.104 41.1636 39.384 39.4516 39.384ZM53.8036 39H46.8676V35.016H46.4836V20.616C46.4836 19.256 46.1236 18.368 45.4036 17.952C44.6836 17.52 43.6516 17.304 42.3076 17.304C41.2996 17.304 40.2436 17.392 39.1396 17.568C38.0516 17.744 37.0196 17.976 36.0436 18.264C35.0676 18.552 34.2516 18.864 33.5956 19.2L32.0116 14.592C32.5556 14.272 33.4036 13.896 34.5556 13.464C35.7076 13.032 37.0276 12.656 38.5156 12.336C40.0036 12 41.4996 11.832 43.0036 11.832C45.4676 11.832 47.4916 12.12 49.0756 12.696C50.6756 13.272 51.8596 14.248 52.6276 15.624C53.4116 17 53.8036 18.904 53.8036 21.336V39Z" fill="#141414"/>
<path d="M61.1378 39V12.288H68.4578V39H61.1378ZM64.4258 8.424C63.2418 8.424 62.2418 8.056 61.4258 7.32C60.6098 6.584 60.2018 5.624 60.2018 4.44C60.2018 3.64 60.4178 2.912 60.8498 2.256C61.2978 1.584 61.8738 1.048 62.5778 0.648002C63.2978 0.248002 64.0658 0.0480022 64.8818 0.0480022C66.1938 0.0480022 67.2178 0.424002 67.9538 1.176C68.7058 1.912 69.0818 2.864 69.0818 4.032C69.0818 5.248 68.6178 6.288 67.6898 7.152C66.7778 8 65.6898 8.424 64.4258 8.424Z" fill="#141414"/>
<path d="M86.8396 39.384C84.5036 39.384 82.5196 39.008 80.8876 38.256C79.2556 37.488 77.9356 36.44 76.9276 35.112C75.9356 33.784 75.2156 32.264 74.7676 30.552C74.3196 28.824 74.1036 27 74.1196 25.08C74.1676 22.232 74.7596 19.832 75.8956 17.88C77.0476 15.928 78.6076 14.448 80.5756 13.44C82.5596 12.432 84.8076 11.928 87.3196 11.928C90.4556 11.928 92.9596 12.584 94.8316 13.896C96.7036 15.208 98.0476 16.952 98.8636 19.128C99.6796 21.288 100.064 23.64 100.016 26.184C99.9836 29.048 99.3996 31.464 98.2636 33.432C97.1276 35.384 95.5756 36.864 93.6076 37.872C91.6396 38.88 89.3836 39.384 86.8396 39.384ZM87.0316 34.272C88.9356 34.288 90.3196 33.576 91.1836 32.136C92.0476 30.696 92.4796 28.608 92.4796 25.872C92.4796 24.256 92.3036 22.784 91.9516 21.456C91.5996 20.128 91.0316 19.064 90.2476 18.264C89.4796 17.464 88.4556 17.056 87.1756 17.04C85.2556 17.024 83.8636 17.728 82.9996 19.152C82.1356 20.56 81.7036 22.6 81.7036 25.272C81.7036 26.904 81.8796 28.408 82.2316 29.784C82.5836 31.144 83.1436 32.232 83.9116 33.048C84.6956 33.864 85.7356 34.272 87.0316 34.272Z" fill="#141414"/>
<path d="M114.654 39V3.288L118.278 3.336C119.078 3.336 119.894 3.312 120.726 3.264C121.558 3.2 122.454 3.144 123.414 3.096C124.374 3.032 125.454 3 126.654 3C129.71 3 132.19 3.368 134.094 4.104C136.014 4.824 137.414 5.848 138.294 7.176C139.174 8.504 139.614 10.072 139.614 11.88C139.614 13.08 139.414 14.24 139.014 15.36C138.63 16.464 138.038 17.424 137.238 18.24C136.438 19.056 135.43 19.632 134.214 19.968C135.622 20.112 136.886 20.56 138.006 21.312C139.126 22.048 140.014 23.016 140.67 24.216C141.326 25.4 141.654 26.736 141.654 28.224C141.654 30.4 141.214 32.32 140.334 33.984C139.47 35.648 137.974 36.96 135.846 37.92C133.734 38.864 130.79 39.336 127.014 39.336C125.478 39.336 123.894 39.288 122.262 39.192C120.646 39.112 119.366 39.048 118.422 39H114.654ZM122.118 18.144C122.406 18.192 122.75 18.232 123.15 18.264C123.55 18.28 123.966 18.296 124.398 18.312C124.846 18.312 125.262 18.312 125.646 18.312C126.046 18.312 126.398 18.312 126.702 18.312C128.494 18.312 129.886 17.872 130.878 16.992C131.886 16.112 132.39 14.672 132.39 12.672C132.39 11.04 131.814 9.872 130.662 9.168C129.526 8.464 127.878 8.112 125.718 8.112C125.478 8.112 125.102 8.128 124.59 8.16C124.078 8.176 123.582 8.208 123.102 8.256C122.622 8.288 122.294 8.344 122.118 8.424V18.144ZM122.118 33.72C122.342 33.864 122.742 33.976 123.318 34.056C123.91 34.136 124.542 34.192 125.214 34.224C125.886 34.256 126.486 34.272 127.014 34.272C129.286 34.272 131.022 33.84 132.222 32.976C133.422 32.096 134.022 30.608 134.022 28.512C134.022 26.704 133.454 25.36 132.318 24.48C131.198 23.6 129.398 23.16 126.918 23.16C126.566 23.16 126.158 23.16 125.694 23.16C125.246 23.16 124.782 23.168 124.302 23.184C123.838 23.2 123.414 23.216 123.03 23.232C122.646 23.248 122.342 23.28 122.118 23.328V33.72Z" fill="#141414"/>
<path d="M155.402 39.384C153.546 39.384 152.042 39.112 150.89 38.568C149.754 38.008 148.89 37.216 148.298 36.192C147.706 35.168 147.306 33.96 147.098 32.568C146.89 31.176 146.786 29.64 146.786 27.96V12.264H154.082V28.056C154.082 29.736 154.226 30.992 154.514 31.824C154.802 32.656 155.242 33.208 155.834 33.48C156.442 33.752 157.218 33.888 158.162 33.888C158.738 33.888 159.33 33.808 159.938 33.648C160.546 33.488 161.106 33.296 161.618 33.072C162.13 32.832 162.522 32.608 162.794 32.4V12.264H170.114V39.384H165.458C164.834 39.384 164.346 39.288 163.994 39.096C163.658 38.904 163.49 38.456 163.49 37.752V35.976L163.634 36.672C162.978 37.184 162.178 37.648 161.234 38.064C160.306 38.464 159.33 38.784 158.306 39.024C157.282 39.264 156.314 39.384 155.402 39.384Z" fill="#141414"/>
<path d="M175.627 25.92C175.627 23.296 176.107 20.928 177.067 18.816C178.027 16.704 179.483 15.032 181.435 13.8C183.403 12.552 185.899 11.928 188.923 11.928C190.667 11.928 192.171 12.072 193.435 12.36C194.715 12.648 195.571 12.944 196.003 13.248L195.091 18.84C194.499 18.472 193.755 18.176 192.859 17.952C191.979 17.728 190.883 17.616 189.571 17.616C188.531 17.616 187.507 17.856 186.499 18.336C185.507 18.816 184.675 19.608 184.003 20.712C183.347 21.816 182.995 23.296 182.947 25.152C182.899 27.152 183.163 28.792 183.739 30.072C184.331 31.336 185.131 32.272 186.139 32.88C187.163 33.472 188.299 33.768 189.547 33.768C190.763 33.768 191.891 33.64 192.931 33.384C193.971 33.128 194.779 32.856 195.355 32.568L196.435 37.056C195.667 37.824 194.507 38.408 192.955 38.808C191.419 39.192 189.795 39.384 188.083 39.384C185.315 39.384 183.011 38.8 181.171 37.632C179.331 36.448 177.947 34.84 177.019 32.808C176.091 30.776 175.627 28.48 175.627 25.92Z" fill="#141414"/>
<path d="M199.486 25.92C199.486 23.296 199.966 20.928 200.926 18.816C201.886 16.704 203.342 15.032 205.294 13.8C207.262 12.552 209.758 11.928 212.782 11.928C214.526 11.928 216.03 12.072 217.294 12.36C218.574 12.648 219.43 12.944 219.862 13.248L218.95 18.84C218.358 18.472 217.614 18.176 216.718 17.952C215.838 17.728 214.742 17.616 213.43 17.616C212.39 17.616 211.366 17.856 210.358 18.336C209.366 18.816 208.534 19.608 207.862 20.712C207.206 21.816 206.854 23.296 206.806 25.152C206.758 27.152 207.022 28.792 207.598 30.072C208.19 31.336 208.99 32.272 209.998 32.88C211.022 33.472 212.158 33.768 213.406 33.768C214.622 33.768 215.75 33.64 216.79 33.384C217.83 33.128 218.638 32.856 219.214 32.568L220.294 37.056C219.526 37.824 218.366 38.408 216.814 38.808C215.278 39.192 213.654 39.384 211.942 39.384C209.174 39.384 206.87 38.8 205.03 37.632C203.19 36.448 201.806 34.84 200.878 32.808C199.95 30.776 199.486 28.48 199.486 25.92Z" fill="#141414"/>
<path d="M225.482 39V12.288H232.802V39H225.482ZM228.77 8.424C227.586 8.424 226.586 8.056 225.77 7.32C224.954 6.584 224.546 5.624 224.546 4.44C224.546 3.64 224.762 2.912 225.194 2.256C225.642 1.584 226.218 1.048 226.922 0.648002C227.642 0.248002 228.41 0.0480022 229.226 0.0480022C230.538 0.0480022 231.562 0.424002 232.298 1.176C233.05 1.912 233.426 2.864 233.426 4.032C233.426 5.248 232.962 6.288 232.034 7.152C231.122 8 230.034 8.424 228.77 8.424Z" fill="#141414"/>
<path d="M247.295 39.384C245.599 39.384 244.111 39.04 242.831 38.352C241.551 37.664 240.551 36.704 239.831 35.472C239.127 34.24 238.775 32.808 238.775 31.176C238.775 29.544 239.215 28.144 240.095 26.976C240.991 25.808 242.199 24.896 243.719 24.24C244.759 23.808 245.895 23.472 247.127 23.232C248.375 22.992 249.615 22.824 250.847 22.728C252.095 22.632 253.255 22.584 254.327 22.584L255.551 24.096L254.327 26.448C253.751 26.448 253.103 26.488 252.383 26.568C251.663 26.648 250.967 26.768 250.295 26.928C249.639 27.072 249.087 27.24 248.639 27.432C248.015 27.72 247.455 28.104 246.959 28.584C246.479 29.064 246.239 29.8 246.239 30.792C246.239 32.088 246.599 33.048 247.319 33.672C248.039 34.28 248.967 34.584 250.103 34.584C250.695 34.584 251.279 34.504 251.855 34.344C252.447 34.184 252.967 34 253.415 33.792C253.863 33.568 254.167 33.36 254.327 33.168L255.599 34.68L254.711 36.744C253.991 37.384 252.999 37.984 251.735 38.544C250.487 39.104 249.007 39.384 247.295 39.384ZM261.647 39H254.711V35.016H254.327V20.616C254.327 19.256 253.967 18.368 253.247 17.952C252.527 17.52 251.495 17.304 250.151 17.304C249.143 17.304 248.087 17.392 246.983 17.568C245.895 17.744 244.863 17.976 243.887 18.264C242.911 18.552 242.095 18.864 241.439 19.2L239.855 14.592C240.399 14.272 241.247 13.896 242.399 13.464C243.551 13.032 244.871 12.656 246.359 12.336C247.847 12 249.343 11.832 250.847 11.832C253.311 11.832 255.335 12.12 256.919 12.696C258.519 13.272 259.703 14.248 260.471 15.624C261.255 17 261.647 18.904 261.647 21.336V39Z" fill="#141414"/>
<path d="M275.414 21.576L275.078 16.44C275.366 15.672 275.894 14.944 276.662 14.256C277.43 13.552 278.342 12.984 279.398 12.552C280.454 12.104 281.566 11.88 282.734 11.88C283.214 11.88 283.654 11.904 284.054 11.952C284.47 12 284.774 12.08 284.966 12.192V19.32C284.742 19.176 284.398 19.032 283.934 18.888C283.47 18.744 282.766 18.672 281.822 18.672C280.67 18.672 279.678 18.84 278.846 19.176C278.014 19.496 277.31 19.888 276.734 20.352C276.174 20.8 275.734 21.208 275.414 21.576ZM268.526 39V12.288H274.862L275.27 16.464L275.846 17.736V39H268.526Z" fill="#141414"/>
<path d="M300.576 39.384C296.464 39.384 293.312 38.16 291.12 35.712C288.928 33.264 287.832 29.88 287.832 25.56C287.832 22.968 288.328 20.648 289.32 18.6C290.328 16.552 291.784 14.936 293.688 13.752C295.592 12.552 297.92 11.944 300.672 11.928C302.064 11.912 303.392 12.088 304.656 12.456C305.92 12.824 307.048 13.424 308.04 14.256C309.032 15.072 309.824 16.16 310.416 17.52C311.024 18.864 311.336 20.512 311.352 22.464C311.352 23.44 311.336 24.344 311.304 25.176C311.272 26.008 311.2 26.72 311.088 27.312H291.768L292.248 23.352H304.536C304.616 22.056 304.544 20.92 304.32 19.944C304.112 18.952 303.696 18.184 303.072 17.64C302.448 17.08 301.568 16.8 300.432 16.8C299.328 16.8 298.36 17.104 297.528 17.712C296.712 18.32 296.08 19.368 295.632 20.856C295.2 22.328 295.016 24.36 295.08 26.952C295.144 28.696 295.48 30.096 296.088 31.152C296.712 32.192 297.552 32.944 298.608 33.408C299.68 33.856 300.92 34.08 302.328 34.08C303.096 34.08 303.936 34.016 304.848 33.888C305.76 33.76 306.624 33.592 307.44 33.384C308.256 33.16 308.88 32.936 309.312 32.712L310.536 36.696C309.944 37.176 309.128 37.624 308.088 38.04C307.064 38.44 305.896 38.76 304.584 39C303.288 39.256 301.952 39.384 300.576 39.384Z" fill="#141414"/>
<path d="M317.165 39V0H324.509V39H317.165Z" fill="#141414"/>
<path d="M331.883 39V0H339.227V39H331.883Z" fill="#141414"/>
<path d="M346.794 39V12.288H354.114V39H346.794ZM350.082 8.424C348.898 8.424 347.898 8.056 347.082 7.32C346.266 6.584 345.858 5.624 345.858 4.44C345.858 3.64 346.074 2.912 346.506 2.256C346.954 1.584 347.53 1.048 348.234 0.648002C348.954 0.248002 349.722 0.0480022 350.538 0.0480022C351.85 0.0480022 352.874 0.424002 353.61 1.176C354.362 1.912 354.738 2.864 354.738 4.032C354.738 5.248 354.274 6.288 353.346 7.152C352.434 8 351.346 8.424 350.082 8.424Z" fill="#141414"/>
</svg>
